HIERARCHY
ROOT Hips
{
	OFFSET -0.001795 -0.223333 0.028219
	CHANNELS 6 Xposition Yposition Zposition Zrotation Yrotation Xrotation 
	JOINT LeftUpLeg
	{
		OFFSET 0.069520 -0.091406 -0.006815
		CHANNELS 3 Zrotation Yrotation Xrotation
		JOINT LeftLeg
		{
			OFFSET 0.034277 -0.375199 -0.004496
			CHANNELS 3 Zrotation Yrotation Xrotation
			JOINT LeftFoot
			{
				OFFSET -0.013596 -0.397961 -0.043693
				CHANNELS 3 Zrotation Yrotation Xrotation
				JOINT LeftToe
				{
					OFFSET 0.026358 -0.055791 0.119288
					CHANNELS 3 Zrotation Yrotation Xrotation
					End Site
					{
						OFFSET 0.000000 0.000000 0.000000
					}
				}
			}
		}
	}
	JOINT RightUpLeg
	{
		OFFSET -0.067670 -0.090522 -0.004320
		CHANNELS 3 Zrotation Yrotation Xrotation
		JOINT RightLeg
		{
			OFFSET -0.038290 -0.382569 -0.008850
			CHANNELS 3 Zrotation Yrotation Xrotation
			JOINT RightFoot
			{
				OFFSET 0.015774 -0.398415 -0.042312
				CHANNELS 3 Zrotation Yrotation Xrotation
				JOINT RightToe
				{
					OFFSET -0.025372 -0.048144 0.123348
					CHANNELS 3 Zrotation Yrotation Xrotation
					End Site
					{
						OFFSET 0.000000 0.000000 0.000000
					}
				}
			}
		}
	}
	JOINT Spine
	{
		OFFSET -0.002533 0.108963 -0.026696
		CHANNELS 3 Zrotation Yrotation Xrotation
		JOINT Spine1
		{
			OFFSET 0.005487 0.135180 0.001092
			CHANNELS 3 Zrotation Yrotation Xrotation
			JOINT Spine2
			{
				OFFSET 0.001457 0.052922 0.025425
				CHANNELS 3 Zrotation Yrotation Xrotation
				JOINT Neck
				{
					OFFSET -0.002778 0.213870 -0.042857
					CHANNELS 3 Zrotation Yrotation Xrotation
					JOINT Head
					{
						OFFSET 0.005152 0.064970 0.051349
						CHANNELS 3 Zrotation Yrotation Xrotation
						End Site
						{
							OFFSET 0.000000 0.000000 0.000000
						}
					}
				}
				JOINT LeftShoulder
				{
					OFFSET 0.078845 0.121749 -0.034090
					CHANNELS 3 Zrotation Yrotation Xrotation
					JOINT LeftArm
					{
						OFFSET 0.090977 0.030469 -0.008868
						CHANNELS 3 Zrotation Yrotation Xrotation
						JOINT LeftForeArm
						{
							OFFSET 0.259612 -0.012772 -0.027456
							CHANNELS 3 Zrotation Yrotation Xrotation
							JOINT LeftHand
							{
								OFFSET 0.249234 0.008986 -0.001171
								CHANNELS 3 Zrotation Yrotation Xrotation
								End Site
								{
									OFFSET 0.000000 0.000000 0.000000
								}
							}
						}
					}
				}
				JOINT RightShoulder
				{
					OFFSET -0.081759 0.118833 -0.038615
					CHANNELS 3 Zrotation Yrotation Xrotation
					JOINT RightArm
					{
						OFFSET -0.096012 0.032551 -0.009143
						CHANNELS 3 Zrotation Yrotation Xrotation
						JOINT RightForeArm
						{
							OFFSET -0.253742 -0.013329 -0.021401
							CHANNELS 3 Zrotation Yrotation Xrotation
							JOINT RightHand
							{
								OFFSET -0.255298 0.007772 -0.005559
								CHANNELS 3 Zrotation Yrotation Xrotation
								End Site
								{
									OFFSET 0.000000 0.000000 0.000000
								}
							}
						}
					}
				}
			}
		}
	}
}
MOTION
Frames: 16
Frame Time: 0.050000
0.099058 0.963017 1.130112 2.314008 -21.218283 4.220438 1.702581 -0.202155 -2.759298 -4.046894 0.624307 -1.679918 10.831642 20.121574 14.649649 0.000000 0.000000 0.000000 -13.215514 1.294637 -15.741783 0.652365 0.334958 7.175810 3.090968 -2.370646 12.767274 0.000000 0.000000 0.000000 16.296874 -2.772317 20.156756 -0.643975 0.171554 -18.902759 2.216972 -0.805800 22.670445 23.877479 -14.531374 -21.952265 0.000000 0.000000 0.000000 0.138514 -26.155218 9.799010 -22.016276 -34.595062 2.260219 11.134557 -61.422302 -2.055917 0.000000 0.000000 0.000000 26.353467 18.366587 4.387679 45.048580 38.006882 9.271125 11.752386 37.202366 4.280573 0.000000 0.000000 0.000000 
0.096772 0.963438 1.131217 2.320796 -20.974047 4.208799 1.957622 -0.178535 -2.586619 -3.981976 0.612264 -1.684524 11.032222 20.434624 14.843127 0.000000 0.000000 0.000000 -12.916782 1.290069 -15.849936 0.400505 0.383321 7.443372 3.375493 -1.709557 12.617148 0.000000 0.000000 0.000000 16.427735 -2.761290 19.751092 -0.625671 0.170359 -18.846893 2.315972 -1.095477 22.665639 23.162508 -14.040629 -22.280503 0.000000 0.000000 0.000000 0.328726 -25.985920 9.685793 -22.164411 -34.390667 2.269956 8.213255 -61.862972 -0.287787 0.000000 0.000000 0.000000 26.311301 18.266951 4.242848 45.278928 38.005257 9.348804 12.408794 36.803542 4.415529 0.000000 0.000000 0.000000 
0.094523 0.963759 1.132185 2.396661 -20.755489 4.143930 2.090489 -0.164587 -2.469719 -3.935430 0.604140 -1.581037 10.985816 20.365854 14.922241 0.000000 0.000000 0.000000 -12.934753 1.278768 -15.877996 0.751760 0.362623 7.821005 3.321394 -1.537921 12.241148 0.000000 0.000000 0.000000 16.438906 -2.731652 19.375340 -0.683976 0.190478 -18.801762 2.564308 -1.251158 22.818447 22.578372 -13.712851 -22.356264 0.000000 0.000000 0.000000 0.527178 -26.158353 9.684282 -22.029541 -34.521641 2.278689 7.833610 -61.983491 -0.048799 0.000000 0.000000 0.000000 26.017256 18.322732 4.267924 45.181187 38.196524 9.363044 12.899431 36.685919 4.543796 0.000000 0.000000 0.000000 
0.092467 0.963970 1.133079 2.326987 -20.473069 4.184898 2.290102 -0.162050 -2.538126 -3.764352 0.576880 -1.425262 11.209727 20.689888 15.219845 0.000000 0.000000 0.000000 -12.809752 1.274498 -16.059588 0.955922 0.370405 8.366942 3.375248 -1.179637 11.915137 0.000000 0.000000 0.000000 16.683394 -2.741987 19.009106 -0.753225 0.210414 -18.635739 2.613789 -1.297569 22.694807 22.151841 -13.558853 -22.021531 0.000000 0.000000 0.000000 0.612458 -26.301449 9.703214 -22.164732 -34.664739 2.336680 6.975350 -61.915679 0.450410 0.000000 0.000000 0.000000 25.915408 18.535597 4.448014 45.010757 38.229096 9.322593 13.063482 36.561133 4.587815 0.000000 0.000000 0.000000 
0.090669 0.963739 1.133917 2.410122 -20.136263 4.077423 2.492262 -0.152449 -2.513638 -3.612846 0.552212 -1.264913 11.116424 20.570870 15.198718 0.000000 0.000000 0.000000 -12.747879 1.256518 -16.061408 1.139967 0.377994 8.902592 3.230581 -1.088723 11.413611 0.000000 0.000000 0.000000 16.755321 -2.745332 18.833673 -0.877835 0.254919 -18.636170 2.656626 -1.547039 22.756787 21.884368 -13.461347 -21.884285 0.000000 0.000000 0.000000 0.759361 -26.370030 9.679891 -22.281396 -35.059306 2.448264 7.287223 -62.024676 0.301018 0.000000 0.000000 0.000000 25.639627 18.607704 4.483013 45.308004 38.398378 9.442032 13.209400 36.541276 4.623737 0.000000 0.000000 0.000000 
0.089108 0.963595 1.134745 2.433948 -19.789394 4.011408 2.753023 -0.147456 -2.594708 -3.626578 0.552154 -1.130330 11.173730 20.679019 15.237921 0.000000 0.000000 0.000000 -12.731448 1.247387 -16.312524 1.442851 0.387663 9.745636 3.198103 -0.922622 11.146168 0.000000 0.000000 0.000000 16.995574 -2.775098 18.688429 -0.995997 0.297178 -18.666217 2.706732 -1.613214 22.682591 21.237719 -13.062619 -21.926903 0.000000 0.000000 0.000000 0.779568 -26.670829 9.774150 -22.494685 -35.414836 2.558761 7.587939 -61.827556 0.110268 0.000000 0.000000 0.000000 25.586697 18.645698 4.561364 45.591387 38.348969 9.491238 13.160124 36.168735 4.570697 0.000000 0.000000 0.000000 
0.087676 0.963494 1.135666 2.492240 -19.561697 3.978471 2.881380 -0.156343 -2.799573 -3.486389 0.531515 -0.687454 11.186587 20.720907 15.173771 0.000000 0.000000 0.000000 -12.714029 1.241651 -16.480176 1.590779 0.400557 10.308363 3.119868 -0.890002 10.912222 0.000000 0.000000 0.000000 17.077446 -2.781952 18.563541 -0.993741 0.299941 -18.560849 2.748955 -1.618777 22.549133 20.577348 -12.662324 -21.904953 0.000000 0.000000 0.000000 0.863480 -26.663303 9.739143 -22.964451 -35.569469 2.690577 7.594253 -62.582787 0.158971 0.000000 0.000000 0.000000 25.581966 18.668694 4.619700 46.219823 38.378306 9.679032 12.730924 35.814589 4.405693 0.000000 0.000000 0.000000 
0.086262 0.963479 1.136840 2.592690 -19.078474 3.896707 3.130833 -0.149101 -2.827942 -3.462206 0.523797 -0.626870 11.129760 20.653890 15.239565 0.000000 0.000000 0.000000 -12.802943 1.221446 -16.710976 1.808729 0.406953 11.014024 3.252931 -0.596942 10.986906 0.000000 0.000000 0.000000 17.238616 -2.790713 18.283407 -1.035175 0.320506 -18.387001 2.740659 -1.698451 22.416249 19.731804 -12.169997 -21.837183 0.000000 0.000000 0.000000 1.012253 -26.785602 9.720960 -23.282933 -35.647788 2.775322 7.715792 -63.102575 0.111001 0.000000 0.000000 0.000000 25.595676 18.537222 4.617305 46.753267 38.458863 9.849324 11.985009 35.317343 4.138619 0.000000 0.000000 0.000000 
0.085021 0.963455 1.138229 2.630759 -18.984162 3.793192 3.207542 -0.140531 -2.755511 -3.380330 0.511526 -0.492234 11.207823 20.769472 15.345663 0.000000 0.000000 0.000000 -12.787202 1.218810 -16.844595 1.990702 0.416025 11.604287 3.161196 -0.775855 11.009245 0.000000 0.000000 0.000000 17.272615 -2.786416 18.222595 -1.144537 0.355573 -18.407250 2.887513 -1.654001 22.511135 19.271839 -11.973625 -21.572741 0.000000 0.000000 0.000000 0.938155 -26.851721 9.761481 -23.750837 -35.836516 2.896872 8.027761 -63.845628 -0.030252 0.000000 0.000000 0.000000 25.680103 18.463679 4.605006 47.252028 38.584108 10.030179 11.288946 34.807878 3.885425 0.000000 0.000000 0.000000 
0.084096 0.963593 1.139704 2.619504 -18.900462 3.747661 3.329082 -0.136761 -2.788581 -3.223663 0.486797 -0.558249 11.238946 20.803420 15.457901 0.000000 0.000000 0.000000 -12.828588 1.220699 -17.101742 2.195835 0.429583 12.330866 3.339436 -0.421586 11.053277 0.000000 0.000000 0.000000 17.428735 -2.793113 18.111725 -1.243423 0.385761 -18.377643 2.925980 -1.625243 22.430829 18.694610 -11.696414 -21.279377 0.000000 0.000000 0.000000 0.980743 -26.990090 9.790777 -24.247290 -35.937583 3.030775 7.691756 -64.767879 0.219478 0.000000 0.000000 0.000000 25.495460 18.371228 4.591447 48.107867 38.742406 10.310950 10.222684 34.347526 3.534903 0.000000 0.000000 0.000000 
0.083794 0.963615 1.141024 2.718241 -18.767677 3.705718 3.410815 -0.136680 -2.840200 -3.208437 0.483896 -0.481477 11.211491 20.783198 15.367322 0.000000 0.000000 0.000000 -12.897173 1.220799 -17.381355 2.403901 0.431325 12.922252 3.228546 -0.635281 11.081272 0.000000 0.000000 0.000000 17.599400 -2.815236 18.090794 -1.236945 0.387698 -18.358942 2.862575 -1.516993 22.310680 18.431472 -11.416832 -21.662919 0.000000 0.000000 0.000000 1.015516 -26.841041 9.715411 -25.326683 -36.437201 3.380712 8.582873 -65.386394 -0.282894 0.000000 0.000000 0.000000 25.630285 18.187643 4.537688 48.612146 39.095861 10.615546 9.053388 33.450961 3.129030 0.000000 0.000000 0.000000 
0.084011 0.963630 1.142112 2.907852 -18.556120 3.669805 3.402879 -0.146481 -2.962077 -3.212473 0.483712 -0.283617 11.162795 20.754738 15.162781 0.000000 0.000000 0.000000 -13.033550 1.217755 -17.789021 2.629658 0.439988 13.720208 3.241853 -0.433495 10.878558 0.000000 0.000000 0.000000 17.784695 -2.832030 17.976310 -1.388468 0.440727 -18.411347 2.973286 -1.556123 22.320495 17.729551 -10.998683 -21.687613 0.000000 0.000000 0.000000 0.788451 -27.046548 9.862564 -25.837394 -36.682909 3.541688 8.678004 -65.777747 -0.339881 0.000000 0.000000 0.000000 25.510668 18.114915 4.530410 49.096633 39.287713 10.815282 8.022706 32.925320 2.805555 0.000000 0.000000 0.000000 
0.084516 0.963687 1.143077 3.004145 -18.373924 3.682104 3.327085 -0.160910 -3.108008 -3.074924 0.461896 -0.127687 10.996482 20.489020 15.242644 0.000000 0.000000 0.000000 -13.185860 1.209364 -17.999786 2.930094 0.392549 13.906174 3.208248 -0.602931 11.088464 0.000000 0.000000 0.000000 17.914129 -2.831236 17.767476 -1.339086 0.427180 -18.284344 2.990528 -1.566019 22.208712 17.613460 -10.854270 -21.973114 0.000000 0.000000 0.000000 0.701425 -26.913182 9.838039 -26.563276 -37.150783 3.822712 8.877536 -65.504628 -0.466774 0.000000 0.000000 0.000000 25.617309 18.003298 4.496157 49.277816 39.406016 10.924449 7.353010 32.572171 2.603256 0.000000 0.000000 0.000000 
0.084854 0.963932 1.144074 3.144708 -18.081710 3.647837 3.286306 -0.160564 -3.030728 -3.165787 0.473845 -0.063758 10.840182 20.282928 15.164211 0.000000 0.000000 0.000000 -13.484028 1.182243 -18.092832 3.185004 0.347347 14.068055 3.186560 -0.694656 11.240740 0.000000 0.000000 0.000000 18.061798 -2.849257 17.662988 -1.324247 0.429780 -18.234095 3.062998 -1.577500 22.205944 17.222365 -10.645519 -21.794798 0.000000 0.000000 0.000000 0.900199 -26.939367 9.769424 -26.819304 -37.608913 4.007470 8.675259 -65.006986 -0.366072 0.000000 0.000000 0.000000 25.312764 17.635119 4.356513 49.746132 39.504913 11.050414 6.868823 32.375183 2.469737 0.000000 0.000000 0.000000 
0.084822 0.964369 1.145264 3.190852 -17.976622 3.547413 3.251154 -0.155314 -2.921039 -3.098734 0.463093 -0.007345 10.557232 19.872251 14.992183 0.000000 0.000000 0.000000 -13.555895 1.169258 -18.068993 3.233979 0.334852 14.060773 3.312835 -0.534045 11.410998 0.000000 0.000000 0.000000 18.189881 -2.866437 17.682178 -1.184144 0.394581 -18.330862 2.978649 -1.727084 22.265033 16.845157 -10.457508 -21.701632 0.000000 0.000000 0.000000 1.226350 -26.719795 9.578512 -26.864907 -37.637380 4.056352 7.371317 -64.674154 0.455306 0.000000 0.000000 0.000000 25.337039 17.566884 4.286467 49.884486 39.098030 10.909339 6.950066 32.386707 2.487363 0.000000 0.000000 0.000000 
0.084386 0.964708 1.146677 3.326218 -17.649165 3.392640 3.339020 -0.137385 -2.681889 -3.131720 0.465159 -0.163585 10.445772 19.712169 15.119731 0.000000 0.000000 0.000000 -13.572553 1.136874 -17.746918 3.206892 0.311004 13.728622 3.322414 -0.465189 11.385410 0.000000 0.000000 0.000000 18.316865 -2.885723 17.640979 -1.173972 0.400700 -18.417940 2.889547 -1.930741 22.153750 16.343320 -10.253888 -21.296800 0.000000 0.000000 0.000000 1.405064 -26.792752 9.542149 -26.599318 -37.559821 3.991667 5.752166 -64.532486 1.448125 0.000000 0.000000 0.000000 25.329674 17.287958 4.115496 50.243077 38.742919 10.854019 7.261646 32.354432 2.565286 0.000000 0.000000 0.000000 
